<svg xmlns="http://www.w3.org/2000/svg" viewBox="0 0 24 24" fill="currentColor">
  <path d="M19.54 5.34A16.4 16.4 0 0 0 15.5 4.1l-.17.34c-.22.44-.47 1.02-.65 1.49a15.1 15.1 0 0 0-4.36 0a12.2 12.2 0 0 0-.65-1.49L9.5 4.1a16.4 16.4 0 0 0-4.04 1.24C2.92 9.13 2.23 12.83 2.57 16.47a16.6 16.6 0 0 0 4.96 2.49l.4-.64c.28-.46.55-.95.77-1.46c-.43-.16-.84-.35-1.23-.58c.1-.07.2-.15.3-.23l.23-.18a11.74 11.74 0 0 0 10 0l.24.18c.1.08.2.16.3.23c-.39.23-.8.42-1.23.58c.22.51.48 1 .77 1.46l.4.64a16.55 16.55 0 0 0 4.95-2.49c.4-4.2-.67-7.86-2.68-11.13M9.95 14.23c-.97 0-1.76-.88-1.76-1.96s.78-1.96 1.76-1.96c.97 0 1.76.88 1.76 1.96s-.79 1.96-1.76 1.96m4.1 0c-.97 0-1.76-.88-1.76-1.96s.79-1.96 1.76-1.96c.98 0 1.77.88 1.76 1.96c0 1.08-.78 1.96-1.76 1.96"/>
</svg>
